<?xml version="1.0" encoding="UTF-8"?>
<svg width="32px" id="a" data-name="Layer 1" xmlns="http://www.w3.org/2000/svg" viewBox="0 0 277.56 251.15">
  <defs>
    <style>
      .b {
        fill: #47bed6;
      }

      .b, .c, .d, .e {
        stroke-width: 0px;
      }

      .c {
        fill: #fbb03b;
      }

      .d {
        fill: #41aec3;
      }

      .e {
        fill: #368f9d;
      }
    </style>
  </defs>
  <path class="c" d="M19.19,8.87c14.58,5.12,22.96,20.64,18.85,34.91,0,0-.05.36-.05.36-1.09,1.39-1,1-1.32.74-5.17,3.65-11.26,5.27-16.96,7.75-9.7-1.77-16.06-7.18-18.53-16.88-.08-.33-.17-2.14-.89-5.36C.09,29.51,0,28.59,0,27.67c.02-2.84.13-3.93,1-6.53C2,18.15,2.9,9.63.17,3.98V0c8.29,4.32,15.76,9.32,16.68,19.84.07.79.43,1.6.83,2.31,1,1.8,2.45,3.68,4.59,2.98,2.29-.75,1.97-3.18,1.6-5.14-.74-3.99-3.42-7.09-5.12-10.64.16-.15.31-.31.45-.48Z"/>
  <path class="d" d="M200.97,126.6c16.46,6.34,25.15,19.99,32.72,34.68-2.05.93-2.42,3.05-3.35,4.75-4.51,8.19-8.99,16.4-13.87,25.34-2.68-8.4-3.88-16.34-8.73-24.4,0,7.76-.12,14.15.03,20.53.16,6.67-.76,13.14-2.96,19.43-3.63,10.4-1.17,19.97,4.04,29.15-8.19,9.21-19.18,12.93-30.79,14.39-14.73,1.86-29.13.19-42.13-7.9-8.24-5.12-13.69-11.95-15.31-21.98-1.06-6.62-3.77-12.97-5.74-19.44,6.11-.94,7.51-6.11,9.01-10.69,7.33-22.41,8.69-45.73,9.99-69.03,0-.65,0-1.29,0-1.94,7.66,2.07,14.78,5.55,22.03,8.65,2.89,1.24,5.78,1.92,8.66,1.13,11.98-3.28,24.19-2.89,36.4-2.66Z"/>
  <path class="b" d="M150.74,52.26c2.68-.83,5.35-1.65,8.03-2.48,4.3,0,8.59,0,12.89,0,2.72.73,5.43,1.46,8.15,2.19,3.5,2.57,6.99,5.15,10.49,7.72.79,1.66,1.81,3.13,3.4,4.13,1.38,3.71,2.75,7.42,4.12,11.13-.01,2.56-.02,5.11-.03,7.67-.5,5.55-2.34,10.58-5.65,15.12-3.98,5.46-9.26,9.69-13.48,15.02-8.94,11.29-20.65,9.82-28.36-2.56-.96-1.54-1.58-3.59-2.96-4.52-8.23-5.54-12.4-13.46-14.21-22.9.2-1.9.4-3.8.6-5.7-.35-4.51,2.72-8.12,3.27-12.39,1.61-.89,2.51-2.31,3.07-4,3.56-2.82,7.11-5.63,10.67-8.44ZM186.49,90.64c6.27-9.77,3.42-21.3-6.18-28.85-9.13-7.18-24.13-5.91-32.7,2.77-6.58,6.65-8.15,19.02-3.2,25.16,2.12-16.67,8.15-23.02,21.59-23.11,5.21-.03,9.83,1.35,13.8,4.66,5.72,4.76,8.15,10.92,6.69,19.38Z"/>
  <path class="e" d="M47.18,56.52c3.12-.24,4.51,1.78,5.23,4.3,2.39,8.34,8.05,13.99,14.64,19.25,10.08,8.03,19.74,16.58,29.61,24.87,1.21,1.02,2.11,2.66,4.09,2.4,1.74,2.88,4.24,5.09,6.93,6.95,2.67,1.85,3.73,4.19,4.4,7.3,2.01,9.27.13,17.94-3.22,26.5-2.04,5.21-3.04,5.38-7.14,1.64-4.86-4.43-8.79-9.84-14.38-13.49-7.34-9.52-16.18-17.69-24.04-26.75-2.7-3.11-5.52-6.1-8.28-9.15-.41-7.95-3.54-15.31-5.07-23.02-.39-1.95-1.69-1.65-3.03-1.02-3.27,1.54-6.53,3.08-9.8,4.63-3.61,1-7.4,2.6-10.31-1.2-3.17-4.13-3.84-11.17-1.68-14.38,7.11-3.51,14.1-7.34,22.03-8.83Z"/>
  <path class="b" d="M237.62,168.54c2.44-4.73,5.71-4.15,9.93-2.18,7,3.27,14.3,5.92,21.45,8.88,1.45.6,3.35.7,3.72,2.78-4.36,6.45-7.69,13.46-11.18,20.39-5.96,11.83-11.89,23.67-17.86,35.5-.78,1.55-1.14,3.51-3.88,2.2-9.11-4.37-18.29-8.58-27.49-12.75-2.43-1.1-2.69-2.39-1.43-4.61,6.27-11.08,12.68-22.09,18.55-33.38,2.87-5.52,6.74-10.6,8.2-16.82Z"/>
  <path class="b" d="M87.36,136.24c5.59,3.64,9.52,9.06,14.38,13.49,4.1,3.74,5.1,3.57,7.14-1.64,3.35-8.55,5.23-17.23,3.22-26.5-.67-3.11-1.73-5.45-4.4-7.3-2.69-1.86-5.19-4.07-6.93-6.95,4.88-7.25,12.23-9.34,20.21-5.72,5.11,2.32,9.05,5.93,11.77,10.85.39,2.34-.37,4.87,1.14,7.03,0,.65,0,1.29,0,1.94-.33.55-.86,1.06-.95,1.64-2.01,13.34-7.17,25.6-13.03,37.6-3.57,7.32-7.34,14.6-16.86,15.61-11.42-1.29-19.26-9.93-19.22-21.2.02-6.49,1.27-12.76,3.53-18.84Z"/>
  <path class="e" d="M237.62,168.54c-1.45,6.22-5.33,11.3-8.2,16.82-5.87,11.29-12.28,22.3-18.55,33.38-1.26,2.23-1,3.52,1.43,4.61,9.2,4.16,18.39,8.38,27.49,12.75,2.74,1.31,3.1-.65,3.88-2.2,5.96-11.83,11.9-23.67,17.86-35.5,3.49-6.93,6.83-13.94,11.18-20.39q5.96,5,2.48,11.72c-8.45,16.34-17.03,32.62-25.26,49.07-1.88,3.76-3.33,4.82-7.38,2.76-7.54-3.84-15.47-6.9-23.08-10.6-3.64-1.77-6.26-2.24-8,2.23-.44,1.13-1.73,1.93-2.63,2.89-5.21-9.18-7.68-18.75-4.04-29.15,2.2-6.29,3.12-12.76,2.96-19.43-.16-6.38-.03-12.77-.03-20.53,4.85,8.06,6.05,16,8.73,24.4,4.89-8.94,9.36-17.15,13.87-25.34.94-1.7,1.31-3.82,3.35-4.75,2.02,2.03,2.75,4.76,3.92,7.25Z"/>
  <path class="e" d="M133.88,119.49c-1.51-2.16-.75-4.69-1.14-7.03.31-4.62.46-9.26.97-13.86.36-3.24-.5-4.66-4-5.17-7.98-1.16-15.89-2.84-23.92-5.09,9.11-1.85,18.23-3.7,27.34-5.55,1.81,9.44,5.98,17.36,14.21,22.9,1.38.93,2,2.98,2.96,4.52,7.71,12.38,19.42,13.86,28.36,2.56,4.22-5.34,9.5-9.56,13.48-15.02,3.31-4.54,5.15-9.57,5.65-15.12,9.14,1.9,18.28,3.81,27.42,5.71-.01.28-.03.56-.04.84-8.19,1.74-16.34,3.66-24.58,5.13-3.2.57-3.94,1.89-3.84,4.91.31,9.31,1.49,18.46,4.21,27.39-12.21-.23-24.42-.61-36.4,2.67-2.88.79-5.76.1-8.66-1.13-7.25-3.1-14.37-6.57-22.03-8.65Z"/>
  <path class="e" d="M103.05,176.27c9.52-1,13.29-8.28,16.86-15.61,5.86-12,11.02-24.26,13.03-37.6.09-.58.62-1.09.95-1.64-1.3,23.31-2.67,46.62-9.99,69.03-1.5,4.59-2.9,9.75-9.01,10.69-7.39-3.31-9.24-10.15-10.8-17.1-.57-2.54-.71-5.18-1.04-7.78Z"/>
  <path class="b" d="M46.36,41.59c2.16-.34,4.34-3.94,6.44.44,2.74,5.7,2.51,8.79-1.18,11.36-1.48,1.03-4.24.33-4.44,3.14-7.93,1.5-14.92,5.32-22.03,8.83-1.74.48-3.55.8-5.21,1.49-3.74,1.54-6.41.48-8.32-2.95q-3.45-6.19,3.18-8.96c1.66-.7,3.28-1.52,4.92-2.29,5.7-2.48,13.6-6.23,16.28-7.49l2-1"/>
  <path class="b" d="M37.13,80.93c3.27-1.54,6.53-3.09,9.8-4.63,1.33-.63,2.64-.93,3.03,1.02,1.53,7.71,4.66,15.07,5.07,23.02-4.65,2.3-6.9.05-8.93-4.03-2.64-5.3-5.95-10.27-8.97-15.38Z"/>
  <path class="e" d="M171.65,49.78c-4.29,0-8.59,0-12.89,0,2.09-9.18,4.19-18.37,6.28-27.55.34-.04.68-.09,1.02-.13,1.86,9.23,3.72,18.45,5.58,27.68Z"/>
  <path class="e" d="M150.74,52.26c-3.56,2.81-7.11,5.63-10.67,8.44-3.41-8.84-6.82-17.68-10.23-26.52.25-.18.5-.35.75-.53,6.72,6.2,13.43,12.4,20.15,18.6Z"/>
  <path class="e" d="M137,64.7c-.55,4.27-3.62,7.88-3.27,12.39-7.86-6.94-15.72-13.88-23.58-20.82.16-.32.33-.64.49-.96,8.79,3.13,17.57,6.26,26.36,9.4Z"/>
  <path class="e" d="M190.29,59.7c-3.5-2.57-6.99-5.15-10.49-7.72,6.76-6.29,13.53-12.57,20.29-18.86.26.14.51.27.77.41-3.52,8.72-7.05,17.45-10.57,26.17Z"/>
  <path class="e" d="M197.82,74.96c-1.37-3.71-2.75-7.42-4.12-11.13,8.79-2.69,17.58-5.37,26.37-8.06.19.29.37.58.56.87-7.6,6.11-15.2,12.21-22.8,18.32Z"/>
  <path class="e" d="M186.49,90.64c1.46-8.45-.97-14.61-6.69-19.38-3.96-3.3-8.58-4.69-13.8-4.66-13.44.09-19.47,6.44-21.59,23.11-4.95-6.14-3.38-18.51,3.2-25.16,8.57-8.67,23.57-9.94,32.7-2.77,9.6,7.55,12.45,19.08,6.18,28.85Z"/>
</svg>